<svg width="27" height="18" viewBox="0 0 27 18" fill="none" xmlns="http://www.w3.org/2000/svg">
<g id="visa-color_large">
<rect id="card_bg" width="27" height="18" rx="4" fill="#2A2A6C"/>
<path id="visa-logo" fill-rule="evenodd" clip-rule="evenodd" d="M17.1494 9.38227C17.1529 8.58148 16.4319 8.2356 15.8724 7.96719C15.5182 7.79727 15.2287 7.65839 15.2287 7.4548C15.2287 7.28148 15.4121 7.09766 15.802 7.0504C16.266 7.00834 16.7338 7.08278 17.1551 7.26573L17.396 6.21533C16.9852 6.07424 16.5503 6.00132 16.1116 6C14.7585 6 13.8182 6.66175 13.8182 7.60711C13.8182 8.30562 14.5005 8.69427 15.0165 8.92535C15.5325 9.15644 15.7332 9.31925 15.7275 9.52933C15.7275 9.85495 15.3032 10.002 14.9076 10.0073C14.4196 10.013 13.938 9.90455 13.5086 9.69214L13.2621 10.7425C13.748 10.9163 14.2656 11.0036 14.7872 10.9999C16.2263 10.9999 17.1723 10.3486 17.1781 9.34026L17.1494 9.38227ZM13.4283 6.08403L12.2816 10.9421H10.9056L12.0523 6.08403H13.4283ZM19.1963 9.23522L19.9187 7.41278L20.3373 9.23522H19.1963ZM22 10.9579H20.7271L20.5609 10.2331H18.8351L18.5541 10.9579H17.1093L19.1676 6.45692C19.2625 6.24277 19.4887 6.1019 19.741 6.09979H20.8877L22 10.9579ZM9.2715 10.9264L11.4961 6.06828H10.0054L8.57774 9.37177L8.00438 6.56196C7.95363 6.27644 7.68377 6.0671 7.36796 6.06828H5.0344L5 6.21008C5.46805 6.29396 5.92268 6.4316 6.35312 6.61973C6.53646 6.69869 6.66069 6.86041 6.67993 7.04514L7.77504 10.9264H9.2715Z" fill="white"/>
</g>
</svg>
