<svg width="27" height="18" viewBox="0 0 27 18" fill="none" xmlns="http://www.w3.org/2000/svg">
<g id="americanexpress-color-large">
<rect id="Rectangle" width="27" height="18" rx="4" fill="white"/>
<g id="amex">
<path id="Path" d="M4.995 10.0688V14.6588H9.64125L10.125 13.9726L10.5975 14.6588H13.4381V13.6238H13.7531C14.0391 13.6263 14.3237 13.5846 14.5969 13.5001V14.6588H16.5263V13.8376L17.1787 14.6588H25.965C26.3262 14.6652 26.6815 14.5675 26.9888 14.3776V16.3126C26.7314 17.3095 25.8302 18.0045 24.8006 18.0001H2.25C1.00736 18.0001 0 16.9927 0 15.7501V8.6626H1.2825L1.54688 7.97635H2.17688L2.43563 8.6626H12.7519V7.84135L13.4044 8.6626H16.11V8.24635C16.5067 8.52876 16.9844 8.67482 17.4713 8.6626H19.0856L19.3444 7.97635H19.9744L20.25 8.6626H23.0063V7.77385L23.5688 8.6626H25.47V4.0726H23.4506V5.00635L22.8487 4.0726H21.0825V5.25385L20.52 4.0726H17.5163C17.0081 4.05787 16.5107 4.22101 16.11 4.53385V4.0726H6.1875L5.85 5.0626L5.5125 4.0501H3.2625V5.23135L2.73375 4.0501H0.9L0 6.1876V2.2501C0 1.00746 1.00736 9.71697e-05 2.25 9.71697e-05H24.8006C25.8344 -0.00945822 26.7416 0.68663 27 1.6876V10.0688H10.6088L10.125 10.7438L9.6525 10.0688H4.995Z" fill="#296DB6"/>
<path id="Shape" fill-rule="evenodd" clip-rule="evenodd" d="M11.9928 10.7995H13.7422V10.777C14.0335 10.7525 14.3213 10.8544 14.5322 11.0568C14.7432 11.2592 14.857 11.5424 14.8447 11.8345C14.8519 12.1301 14.7337 12.4149 14.5194 12.6185C14.305 12.8222 14.0145 12.9256 13.7197 12.9033H12.7634V13.9495H11.9928V10.7995ZM8.27469 11.452V10.777H5.72656V13.9495H8.27469V13.2745H6.49156V12.712H8.24094V12.0258H6.49156V11.4633L8.27469 11.452ZM10.5753 12.3745L11.8466 10.7995H10.9128L10.1253 11.7783L9.34344 10.777H8.38719L9.67531 12.3745L8.43781 13.9495H9.36031L10.1253 12.937L10.8903 13.9608H11.8578L10.5753 12.3745ZM13.6747 12.2508H12.7634V11.452H13.6747C13.889 11.452 14.0628 11.6258 14.0628 11.8401C14.0628 12.0545 13.889 12.2283 13.6747 12.2283V12.2508ZM18.0959 11.6939C18.1612 12.2469 17.7658 12.748 17.2128 12.8133L18.2759 13.9495H17.3141L16.3691 12.8245H16.0203V13.9495H15.2553V10.8108H16.9766C17.5295 10.7455 18.0307 11.1409 18.0959 11.6939ZM16.9091 12.1833H16.0203V11.452H16.9091C17.0091 11.439 17.1098 11.4699 17.1853 11.5368C17.2608 11.6036 17.3037 11.6999 17.3028 11.8008C17.3056 11.9022 17.2633 11.9997 17.1873 12.067C17.1113 12.1343 17.0095 12.1645 16.9091 12.1495V12.1833ZM21.0153 10.8108V11.4858L19.2322 11.4633V12.0258H20.9703V12.712H19.2322V13.2745H21.0153V13.9495H18.4559V10.8108H21.0153ZM23.1359 12.0483H22.3991C22.2852 12.0712 22.1687 12.0231 22.1041 11.9266C22.0395 11.83 22.0395 11.704 22.1041 11.6075C22.1687 11.5109 22.2852 11.4629 22.3991 11.4858H23.7659L24.0697 10.8108H22.4216C22.1411 10.7783 21.8603 10.8684 21.6513 11.0581C21.4422 11.2478 21.3252 11.5185 21.3303 11.8008C21.3132 12.0634 21.4142 12.32 21.6056 12.5006C21.7971 12.6811 22.0591 12.7669 22.3203 12.7345H23.0628C23.1767 12.7116 23.2932 12.7597 23.3578 12.8562C23.4224 12.9528 23.4224 13.0788 23.3578 13.1753C23.2932 13.2719 23.1767 13.3199 23.0628 13.297H21.4203V13.972H23.0628C23.3463 13.9952 23.6259 13.8946 23.8297 13.6962C24.0335 13.4978 24.1415 13.221 24.1259 12.937C24.1402 12.677 24.0374 12.4243 23.8458 12.2479C23.6542 12.0716 23.3939 11.9901 23.1359 12.0258V12.0483ZM26.6966 11.4858H25.3297L25.3128 11.4633C25.1989 11.4404 25.0825 11.4884 25.0179 11.585C24.9533 11.6815 24.9533 11.8075 25.0179 11.9041C25.0825 12.0006 25.1989 12.0487 25.3128 12.0258H26.0778C26.4669 11.9858 26.8382 12.1985 27.0003 12.5545V13.3083C26.8454 13.7371 26.419 14.0059 25.9653 13.9608H24.3509V13.2858H25.9766C26.0905 13.3087 26.2069 13.2606 26.2715 13.1641C26.3361 13.0675 26.3361 12.9415 26.2715 12.845C26.2069 12.7484 26.0905 12.7004 25.9766 12.7233H25.2509C24.9897 12.7557 24.7277 12.6699 24.5363 12.4893C24.3448 12.3087 24.2438 12.0522 24.2609 11.7895C24.2558 11.5073 24.3728 11.2366 24.5819 11.0469C24.791 10.8572 25.0718 10.767 25.3522 10.7995H27.0003L26.6966 11.4858Z" fill="#296DB6"/>
<path id="Shape_2" fill-rule="evenodd" clip-rule="evenodd" d="M14.3156 5.78315C14.328 6.29023 13.953 6.72368 13.4494 6.7844L14.5069 7.9544H13.5506L12.6056 6.8294H12.2569V7.9544H11.475V4.7819H13.1906C13.4773 4.7443 13.7661 4.83315 13.982 5.02534C14.198 5.21753 14.3197 5.49409 14.3156 5.78315ZM2.37937 4.7819H1.37812L0 7.9544H0.8325L1.125 7.31315H2.60437L2.87438 7.9769H3.74062L2.37937 4.7819ZM1.33875 6.6719L1.64812 5.9294L1.85063 5.4344L2.05312 5.9294L2.35687 6.6719H1.33875ZM5.9625 6.61565L6.58125 4.7819H7.81312V7.9544H7.07062V5.87315V5.3894L6.92437 5.87315L6.1875 7.9544H5.5125L4.7925 5.87315L4.635 5.3894V5.87315V7.9544H3.88687V4.7819H5.13L5.76 6.61565L5.86125 6.9644L5.9625 6.61565ZM10.9688 5.4569V4.7819H8.4375V7.9544H10.9688V7.2794H9.18563V6.7169H10.9237V6.03065H9.18563V5.46815L10.9688 5.4569ZM13.1456 6.1544H12.2569V5.4569H13.1456C13.2453 5.44575 13.3449 5.47733 13.42 5.5438C13.495 5.61026 13.5384 5.70541 13.5394 5.80565C13.5422 5.90711 13.4999 6.00461 13.4239 6.07191C13.3479 6.13921 13.246 6.16941 13.1456 6.1544ZM14.6869 7.9544V4.7819H15.4575V7.9544H14.6869ZM17.4994 5.46815H18.3263V4.7819H17.4375C17.0191 4.75545 16.6101 4.91336 16.3181 5.21407C16.026 5.51479 15.8801 5.92823 15.9188 6.34565V6.39065C15.8718 6.8021 16.0085 7.21334 16.2925 7.51472C16.5766 7.81609 16.979 7.97695 17.3925 7.9544H17.4375L17.7469 7.2794H17.4937C17.2603 7.2914 17.0336 7.19907 16.875 7.02739C16.7163 6.85571 16.6421 6.62242 16.6725 6.39065V6.34565C16.6458 6.11568 16.7216 5.8856 16.8798 5.71657C17.038 5.54753 17.2625 5.45668 17.4937 5.46815H17.4994ZM19.1756 4.7819H20.1881L21.5438 7.9769H20.6775L20.4075 7.31315H18.9056L18.6356 7.9544H17.8144L19.1756 4.7819ZM19.1531 6.6719L19.4456 5.9294L19.6481 5.4344L19.8394 5.9294L20.1431 6.6719H19.1531ZM23.9681 6.4694V4.7819H24.75V7.9544H23.8219L22.6462 6.16565L22.4438 5.8169V6.18815V7.9769H21.69V4.8044H22.6294L23.7544 6.4919L23.9681 6.8519V6.4694Z" fill="#296DB6"/>
</g>
</g>
</svg>
