<svg width="69" height="19" viewBox="0 0 69 19" fill="none" xmlns="http://www.w3.org/2000/svg">
<path d="M13.328 9.264C14.288 9.568 15.04 10.08 15.584 10.8C16.128 11.504 16.4 12.376 16.4 13.416C16.4 14.888 15.824 16.024 14.672 16.824C13.536 17.608 11.872 18 9.68 18H0.992V1.2H9.2C11.248 1.2 12.816 1.592 13.904 2.376C15.008 3.16 15.56 4.224 15.56 5.568C15.56 6.384 15.36 7.112 14.96 7.752C14.576 8.392 14.032 8.896 13.328 9.264ZM4.856 4.128V8.088H8.72C9.68 8.088 10.408 7.92 10.904 7.584C11.4 7.248 11.648 6.752 11.648 6.096C11.648 5.44 11.4 4.952 10.904 4.632C10.408 4.296 9.68 4.128 8.72 4.128H4.856ZM9.392 15.072C10.416 15.072 11.184 14.904 11.696 14.568C12.224 14.232 12.488 13.712 12.488 13.008C12.488 11.616 11.456 10.92 9.392 10.92H4.856V15.072H9.392ZM19.0796 0.191999H22.8236V18H19.0796V0.191999ZM32.4423 18.192C31.0823 18.192 29.8583 17.912 28.7703 17.352C27.6983 16.776 26.8583 15.984 26.2503 14.976C25.6423 13.968 25.3383 12.824 25.3383 11.544C25.3383 10.264 25.6423 9.12 26.2503 8.112C26.8583 7.104 27.6983 6.32 28.7703 5.76C29.8583 5.184 31.0823 4.896 32.4423 4.896C33.8023 4.896 35.0183 5.184 36.0903 5.76C37.1623 6.32 38.0023 7.104 38.6103 8.112C39.2183 9.12 39.5223 10.264 39.5223 11.544C39.5223 12.824 39.2183 13.968 38.6103 14.976C38.0023 15.984 37.1623 16.776 36.0903 17.352C35.0183 17.912 33.8023 18.192 32.4423 18.192ZM32.4423 15.12C33.4023 15.12 34.1863 14.8 34.7943 14.16C35.4183 13.504 35.7303 12.632 35.7303 11.544C35.7303 10.456 35.4183 9.592 34.7943 8.952C34.1863 8.296 33.4023 7.968 32.4423 7.968C31.4823 7.968 30.6903 8.296 30.0663 8.952C29.4423 9.592 29.1303 10.456 29.1303 11.544C29.1303 12.632 29.4423 13.504 30.0663 14.16C30.6903 14.8 31.4823 15.12 32.4423 15.12ZM48.1689 18.192C46.8089 18.192 45.5849 17.912 44.4969 17.352C43.4249 16.776 42.5849 15.984 41.9769 14.976C41.3689 13.968 41.0649 12.824 41.0649 11.544C41.0649 10.264 41.3689 9.12 41.9769 8.112C42.5849 7.104 43.4249 6.32 44.4969 5.76C45.5849 5.184 46.8089 4.896 48.1689 4.896C49.5289 4.896 50.7449 5.184 51.8169 5.76C52.8889 6.32 53.7289 7.104 54.3369 8.112C54.9449 9.12 55.2489 10.264 55.2489 11.544C55.2489 12.824 54.9449 13.968 54.3369 14.976C53.7289 15.984 52.8889 16.776 51.8169 17.352C50.7449 17.912 49.5289 18.192 48.1689 18.192ZM48.1689 15.12C49.1289 15.12 49.9129 14.8 50.5209 14.16C51.1449 13.504 51.4569 12.632 51.4569 11.544C51.4569 10.456 51.1449 9.592 50.5209 8.952C49.9129 8.296 49.1289 7.968 48.1689 7.968C47.2089 7.968 46.4169 8.296 45.7929 8.952C45.1689 9.592 44.8569 10.456 44.8569 11.544C44.8569 12.632 45.1689 13.504 45.7929 14.16C46.4169 14.8 47.2089 15.12 48.1689 15.12ZM68.2194 15.12V18H56.6994V15.744L63.2754 7.968H56.8674V5.088H68.0034V7.344L61.4274 15.12H68.2194Z" fill="white"/>
</svg>
