<svg width="27" height="18" viewBox="0 0 27 18" fill="none" xmlns="http://www.w3.org/2000/svg">
<g id="dinnerclub-color-large">
<rect id="card_bg" width="27" height="18" rx="4" fill="white"/>
<path id="card_bg-2" fill-rule="evenodd" clip-rule="evenodd" d="M2.25 0H24.75C25.9926 0 27 1.00736 27 2.25V15.75C27 16.9926 25.9926 18 24.75 18H2.25C1.00736 18 0 16.9926 0 15.75V2.25C0 1.00736 1.00736 0 2.25 0ZM25.875 2.25C25.875 1.62868 25.3713 1.125 24.75 1.125H2.25C1.62868 1.125 1.125 1.62868 1.125 2.25V15.75C1.125 16.3713 1.62868 16.875 2.25 16.875H24.75C25.3713 16.875 25.875 16.3713 25.875 15.75V2.25Z" fill="#0779BE"/>
<g id="dinner_club">
<path id="Shape" fill-rule="evenodd" clip-rule="evenodd" d="M7.88574 11.7585C7.88574 12.1376 7.67199 13.0826 6.37262 13.0826H5.35449V12.9835C5.35944 12.9829 5.36434 12.9824 5.36918 12.9819C5.57889 12.9597 5.68637 12.9484 5.68637 12.6918V10.8543C5.68637 10.5276 5.51762 10.5276 5.35449 10.5276V10.4285H6.41762C6.78491 10.3912 7.15074 10.5129 7.42867 10.7646C7.70661 11.0164 7.87199 11.376 7.88574 11.7585ZM6.33324 10.5685C6.2377 10.5627 6.14191 10.5627 6.04637 10.5685L6.02387 12.6335C6.02387 12.9251 6.22637 12.9601 6.40637 12.9601C6.70179 12.972 6.9876 12.8501 7.18951 12.6262C7.39142 12.4023 7.4895 12.0983 7.45824 11.7935C7.47366 11.4741 7.36198 11.1621 7.1493 10.9305C6.93663 10.699 6.64162 10.5681 6.33324 10.5685Z" fill="#211E1F"/>
<path id="Path" d="M8.79723 13.0821V12.9829H8.73535C8.62848 12.9829 8.54973 12.9829 8.54973 12.8546V11.3963V11.3438C8.52751 11.3385 8.50444 11.3385 8.48223 11.3438C8.35352 11.3978 8.22208 11.4446 8.08848 11.4838V11.5421C8.22348 11.6179 8.27973 11.6413 8.27973 11.8104V12.8371C8.27973 12.9654 8.2066 12.9654 8.10535 12.9654H8.03223V13.0821H8.81973H8.79723Z" fill="#211E1F"/>
<path id="Path_2" d="M8.40328 10.785C8.45201 10.785 8.49866 10.7645 8.53259 10.7283C8.56651 10.692 8.5848 10.643 8.58328 10.5925C8.58024 10.4917 8.50053 10.4116 8.40328 10.4116C8.30387 10.4116 8.22328 10.4952 8.22328 10.5983C8.22328 10.7014 8.30387 10.785 8.40328 10.785Z" fill="#211E1F"/>
<path id="Path_3" d="M10.738 13.0064H10.6761C10.5693 13.0064 10.4905 13.0064 10.4905 12.8781V11.9156C10.4905 11.6239 10.3836 11.3848 10.0686 11.3848C9.83379 11.4046 9.61206 11.5052 9.43863 11.6706V11.4256C9.43863 11.3964 9.43863 11.3848 9.43863 11.3848C9.2807 11.4542 9.11921 11.5146 8.95488 11.5656V11.6414C9.12363 11.7114 9.16863 11.7523 9.16863 11.8923V12.8956C9.16863 13.0239 9.09551 13.0239 8.98863 13.0239H8.92676V13.0823H9.70863V12.9831H9.64113C9.53988 12.9831 9.46113 12.9831 9.46113 12.8548V11.7581C9.58424 11.6598 9.7294 11.5956 9.88301 11.5714C9.97167 11.559 10.061 11.5885 10.1264 11.6518C10.1918 11.7151 10.2264 11.8055 10.2205 11.8981V12.8781C10.2205 13.0064 10.1474 13.0064 10.0461 13.0064H9.97863V13.0823H10.738V13.0064Z" fill="#211E1F"/>
<path id="Shape_2" fill-rule="evenodd" clip-rule="evenodd" d="M12.1043 12.7333C11.9593 12.9842 11.705 13.1454 11.4237 13.165C11.2262 13.1604 11.0388 13.0739 10.9034 12.9247C10.768 12.7756 10.6961 12.5763 10.7037 12.3717C10.7037 11.625 11.1874 11.4033 11.4405 11.4033C11.5992 11.3868 11.7572 11.4409 11.8752 11.5521C11.9932 11.6633 12.0601 11.8213 12.0593 11.9867V12.0567H12.0255H10.9962C10.9899 12.1304 10.9899 12.2046 10.9962 12.2783C10.9832 12.6177 11.232 12.9068 11.5587 12.9317C11.7495 12.9207 11.928 12.8302 12.0537 12.6808L12.1043 12.7333ZM11.4237 11.4908C11.4283 11.4907 11.4329 11.4907 11.4375 11.4908H11.4237ZM11.4415 11.4909C11.4402 11.4909 11.4388 11.4908 11.4375 11.4908H11.4518C11.4483 11.4908 11.4449 11.4909 11.4415 11.4909ZM11.4415 11.4909C11.5232 11.4939 11.6007 11.5303 11.6568 11.5927C11.7169 11.6595 11.7467 11.7498 11.7387 11.8408C11.7387 11.8875 11.7387 11.9342 11.6374 11.9342H11.0299C11.0742 11.6642 11.2222 11.496 11.4415 11.4909Z" fill="#211E1F"/>
<path id="Path_4" d="M12.2682 13.0067H12.167V13.0825H13.1176V12.9834H12.9151C12.8082 12.9834 12.7351 12.9834 12.7351 12.855V11.9859C12.7367 11.8257 12.8519 11.6912 13.0051 11.6709C13.1345 11.6709 13.1345 11.7642 13.247 11.7642C13.2943 11.7627 13.3389 11.7414 13.3708 11.7051C13.4026 11.6688 13.4188 11.6206 13.4157 11.5717C13.4158 11.5155 13.3936 11.4617 13.3542 11.423C13.3148 11.3844 13.2618 11.3643 13.2076 11.3675C12.9882 11.3675 12.8307 11.6125 12.7407 11.7584V11.42C12.7407 11.3792 12.7407 11.3675 12.707 11.3675C12.6732 11.3675 12.527 11.4667 12.257 11.5834V11.6417C12.3132 11.6417 12.4482 11.6942 12.4482 11.8109V12.8784C12.4426 13.0067 12.3695 13.0067 12.2682 13.0067Z" fill="#211E1F"/>
<path id="Path_5" d="M14.0395 13.0414C13.7947 13.0276 13.5976 12.8281 13.5782 12.5747H13.5107L13.5557 13.0064C13.6909 13.0886 13.8436 13.1347 14.0001 13.1406C14.4332 13.1406 14.6301 12.8722 14.6301 12.6214C14.6301 12.0381 13.7807 12.1606 13.7807 11.7172C13.7849 11.6438 13.818 11.5754 13.8723 11.5279C13.9265 11.4805 13.9971 11.4583 14.0676 11.4664C14.2769 11.4565 14.4549 11.6229 14.467 11.8397H14.5626L14.5345 11.4547C14.4057 11.3853 14.2633 11.3474 14.1182 11.3439C13.9799 11.3259 13.8406 11.3685 13.7338 11.4615C13.627 11.5545 13.5625 11.6895 13.5557 11.8339C13.5557 12.4172 14.3545 12.3006 14.3545 12.7497C14.3614 12.8355 14.329 12.9197 14.2671 12.977C14.2052 13.0343 14.1209 13.0582 14.0395 13.0414Z" fill="#211E1F"/>
<path id="Path_6" d="M17.8594 12.96L17.9437 12.4058H17.8594C17.8039 12.7838 17.4912 13.0636 17.1225 13.065C16.4722 13.0092 15.9859 12.4217 16.0312 11.7467C15.9959 11.441 16.0882 11.1342 16.2848 10.9035C16.4815 10.6729 16.7638 10.5403 17.0606 10.5392C17.4439 10.4873 17.7957 10.7662 17.8481 11.1633H17.9381L17.8987 10.6208C17.6253 10.5021 17.3342 10.4331 17.0381 10.4167C16.2988 10.3936 15.6792 10.9919 15.6487 11.7583C15.6266 12.1481 15.7678 12.5288 16.0362 12.8026C16.3046 13.0765 16.6739 13.2168 17.0494 13.1875C17.3315 13.1698 17.6072 13.0924 17.8594 12.96Z" fill="#211E1F"/>
<path id="Path_7" d="M18.8551 13.0827V12.9836H18.7932C18.6863 12.9836 18.6076 12.9836 18.6076 12.8552V10.2302V10.1777C18.6076 10.1777 18.5682 10.1777 18.5288 10.2186C18.4086 10.2855 18.2824 10.3402 18.152 10.3819V10.4461C18.287 10.4869 18.3432 10.4927 18.3432 10.7436V12.8552C18.3432 12.9836 18.2701 12.9836 18.1688 12.9836H18.0957V13.0827H18.8832H18.8551Z" fill="#211E1F"/>
<path id="Path_8" d="M19.063 11.7349V12.7091C19.05 12.8263 19.0865 12.9435 19.163 13.0307C19.2396 13.1179 19.3487 13.1666 19.4624 13.1641C19.7111 13.1462 19.9441 13.0316 20.1149 12.8433V13.1524C20.2882 13.0988 20.4649 13.0578 20.6437 13.0299V12.9658H20.5255C20.4637 12.9658 20.4187 12.9658 20.4187 12.8958V11.4958C20.4187 11.4549 20.4187 11.4258 20.4187 11.4258C20.4187 11.4258 20.1768 11.4549 19.8562 11.4783V11.5483C19.9855 11.5833 20.1599 11.6299 20.1599 11.6999V12.7266C20.0392 12.8467 19.8862 12.9261 19.7212 12.9541C19.4005 12.9541 19.4005 12.6274 19.4005 12.5166V11.5366C19.4005 11.4549 19.4005 11.4258 19.3612 11.4258L18.8887 11.4549V11.5249C19.063 11.5424 19.063 11.6358 19.063 11.7349Z" fill="#211E1F"/>
<path id="Shape_3" fill-rule="evenodd" clip-rule="evenodd" d="M20.8573 12.3828V10.7495C20.8573 10.5245 20.805 10.511 20.66 10.4738C20.6547 10.4724 20.6492 10.471 20.6436 10.4695V10.4053C20.7747 10.3659 20.9012 10.3111 21.0204 10.242L21.1048 10.2012C21.1329 10.2012 21.1329 10.2537 21.1329 10.2537V11.6478C21.2845 11.4921 21.4831 11.3953 21.6954 11.3737C21.8891 11.3825 22.071 11.4727 22.1994 11.6234C22.3277 11.7741 22.3915 11.9724 22.3761 12.1728C22.3952 12.698 22.0046 13.142 21.4986 13.1703C21.3218 13.1693 21.1479 13.1232 20.9923 13.0362L20.8798 13.1237L20.8067 13.0828C20.8415 12.8513 20.8584 12.6172 20.8573 12.3828ZM21.4986 11.5545C21.3652 11.5697 21.2415 11.6339 21.1498 11.7353L21.1217 12.657C21.1303 12.8691 21.2941 13.0389 21.4986 13.0478C21.8979 13.0478 22.0611 12.6453 22.0611 12.307C22.0816 11.9455 21.8413 11.624 21.4986 11.5545Z" fill="#211E1F"/>
<path id="Path_9" d="M5.64164 13.9355H5.34914V14.0172H5.38852C5.46164 14.0172 5.52352 14.0172 5.52914 14.128V15.2072C5.52914 15.3122 5.46164 15.318 5.38852 15.318H5.33789V15.4172H5.63039H5.94539V15.3413H5.92852C5.85539 15.3413 5.78789 15.3413 5.78789 15.2305V14.1163C5.78789 14.0113 5.85539 14.0055 5.92852 14.0055H5.96789V13.9238L5.64164 13.9355Z" fill="#211E1F"/>
<path id="Path_10" d="M7.39129 13.9355H7.11004V14.0171H7.16066C7.22254 14.0171 7.32379 14.0171 7.32941 14.2038V14.9621L6.45191 13.9413C6.38441 13.9413 6.32816 13.9413 6.26629 13.9413H6.03566V14.023H6.06941C6.11514 14.0214 6.15952 14.0391 6.19239 14.0721C6.22527 14.1051 6.24381 14.1505 6.24379 14.198V15.073C6.24379 15.2363 6.20441 15.3238 6.06941 15.3238H6.02441V15.4171H6.30004H6.55316V15.3413H6.50816C6.36191 15.3413 6.33379 15.2888 6.32816 15.108V14.2505L7.34066 15.4171H7.43629C7.43629 15.353 7.43629 15.283 7.43629 15.213V14.2505C7.43629 14.0113 7.52629 13.9996 7.60504 13.9996H7.64441V13.918L7.39129 13.9355Z" fill="#211E1F"/>
<path id="Path_11" d="M9.0218 13.8594C9.0218 13.9119 8.9768 13.9119 8.92055 13.9119H7.87992C7.8293 13.9119 7.79555 13.9119 7.77867 13.8594H7.7168C7.71979 13.9157 7.71979 13.9722 7.7168 14.0285C7.7168 14.0927 7.7168 14.151 7.7168 14.2035H7.79555C7.8293 14.0519 7.8293 14.0227 7.97555 14.0227H8.29055V15.1194C8.29055 15.2769 8.24555 15.2769 8.13305 15.2827H8.08805V15.4169H8.42555H8.74617V15.341H8.70117C8.60555 15.341 8.54367 15.341 8.54367 15.1719V14.046H8.85867C8.98805 14.046 8.99367 14.1569 8.9993 14.2385L9.07242 14.2094V14.0402C9.07242 13.9877 9.07242 13.9294 9.07242 13.871H9.01617L9.0218 13.8594Z" fill="#211E1F"/>
<path id="Path_12" d="M10.215 15.0206C10.1588 15.2539 10.0575 15.2656 9.82125 15.2656C9.69188 15.2656 9.585 15.2656 9.585 15.1372V14.6647H9.81563C9.95063 14.6647 9.95063 14.7406 9.96188 14.8631H10.035C10.035 14.7814 10.035 14.7056 10.035 14.6297C10.035 14.5539 10.035 14.4664 10.035 14.3847H9.95625C9.95625 14.4956 9.9225 14.5539 9.81 14.5597H9.57937V14.0347H9.84938C10.0519 14.0347 10.0687 14.1339 10.08 14.2681H10.1475C10.1475 14.2097 10.1475 14.1281 10.1475 14.0581V13.9414H9.63563H9.14062V14.0231H9.17438C9.2475 14.0231 9.30938 14.0231 9.315 14.1339V15.2131C9.315 15.3181 9.2475 15.3239 9.17438 15.3239H9.14062V15.4172H9.66938H10.2319C10.2319 15.3122 10.2769 15.2014 10.2994 15.0906H10.2375L10.215 15.0206Z" fill="#211E1F"/>
<path id="Shape_4" fill-rule="evenodd" clip-rule="evenodd" d="M11.2043 14.6647L11.5418 15.1838C11.5678 15.2799 11.6538 15.345 11.75 15.3413V15.4172L11.5306 15.3822H11.3393C11.1857 15.1709 11.0466 14.9487 10.9231 14.7172H10.805V15.1838C10.8106 15.3413 10.8668 15.3413 10.9625 15.3413H10.9962V15.4172H10.6531H10.3662V15.3063H10.4112C10.4843 15.3063 10.5462 15.2713 10.5462 15.2013V14.1513C10.5462 14.0055 10.4731 14.0055 10.4112 14.0055H10.3662V13.9238H10.6756H10.9962C11.2437 13.9238 11.48 13.9997 11.48 14.2972C11.4761 14.4692 11.3642 14.6185 11.2043 14.6647ZM10.8893 14.6238C11.0862 14.6238 11.1875 14.5538 11.1875 14.3088C11.1877 14.2334 11.1574 14.1614 11.1039 14.1103C11.0504 14.0593 10.9786 14.0339 10.9062 14.0405H10.7993V14.6238H10.8893Z" fill="#211E1F"/>
<path id="Path_13" d="M13.3986 14.0055V13.9238H13.1511H12.8698V14.0055H12.9204C12.9823 14.0055 13.0836 14.0055 13.0892 14.1922V14.9505L12.2004 13.9297C12.1329 13.9297 12.0767 13.9297 12.0148 13.9297H11.7842V14.0113H11.8179C11.8637 14.0097 11.908 14.0275 11.9409 14.0605C11.9738 14.0935 11.9923 14.1389 11.9923 14.1863V15.0555C11.9923 15.2247 11.9529 15.3122 11.8179 15.3122H11.7842V15.4172H12.0598H12.3129V15.3413H12.2679C12.1217 15.3413 12.0936 15.2888 12.0936 15.108V14.2505L13.1004 15.4172H13.1961C13.1961 15.353 13.1961 15.283 13.1961 15.213V14.2505C13.1961 14.0113 13.2861 13.9997 13.3648 13.9997H13.4042L13.3986 14.0055Z" fill="#211E1F"/>
<path id="Shape_5" fill-rule="evenodd" clip-rule="evenodd" d="M14.5876 15.0766C14.6117 15.1295 14.6361 15.1831 14.6361 15.2303C14.6362 15.2761 14.6598 15.3184 14.6981 15.3412C14.7364 15.3641 14.7835 15.364 14.8217 15.3411V15.417H14.5517H14.248V15.3411H14.2761C14.3267 15.3411 14.3942 15.3295 14.3942 15.2886C14.3867 15.2386 14.3735 15.1896 14.3548 15.1428L14.2761 14.9095H13.8373L13.7755 15.1195C13.7572 15.1709 13.7422 15.2235 13.7305 15.277C13.7305 15.3411 13.8092 15.3411 13.8711 15.3411H13.9048V15.417H13.663H13.4492V15.312C13.5267 15.3128 13.5955 15.2606 13.618 15.1836L13.933 14.2328C13.9651 14.1473 13.9914 14.0596 14.0117 13.9703C14.0769 13.9493 14.1392 13.9199 14.1973 13.8828V13.9353L14.563 15.0203C14.5704 15.0388 14.579 15.0576 14.5876 15.0766ZM14.0005 14.1861L13.8261 14.7403H14.1748L14.0005 14.1861Z" fill="#211E1F"/>
<path id="Path_14" d="M15.9466 13.8594C15.9466 13.9119 15.9016 13.9119 15.8454 13.9119H14.8104C14.7597 13.9119 14.7204 13.9119 14.7091 13.8594H14.6416C14.6474 13.9156 14.6474 13.9723 14.6416 14.0285C14.6416 14.0927 14.6416 14.151 14.6416 14.2094H14.7204C14.7485 14.0577 14.7485 14.0285 14.8947 14.0285H15.2154V15.1252C15.2154 15.2827 15.1647 15.2827 15.0579 15.2885H15.0072V15.4169H15.3447H15.671V15.341H15.626C15.5304 15.341 15.4685 15.341 15.4685 15.1719V14.046H15.7891C15.9129 14.046 15.9185 14.1569 15.9241 14.2385L15.9972 14.2094C15.9943 14.153 15.9943 14.0966 15.9972 14.0402C15.9972 13.9877 15.9972 13.9294 15.9972 13.871H15.941L15.9466 13.8594Z" fill="#211E1F"/>
<path id="Path_15" d="M16.3743 13.9355H16.0762V14.0172H16.1099C16.183 14.0172 16.2505 14.0172 16.2505 14.128V15.2072C16.2505 15.3122 16.183 15.318 16.1099 15.318H16.0762V15.4172H16.3687H16.6837V15.3413H16.6443C16.5712 15.3413 16.5093 15.3413 16.5093 15.2305V14.1163C16.5093 14.0113 16.5712 14.0055 16.6443 14.0055H16.6837V13.9238L16.3743 13.9355Z" fill="#211E1F"/>
<path id="Shape_6" fill-rule="evenodd" clip-rule="evenodd" d="M16.9503 14.1178C17.0899 13.973 17.2796 13.8924 17.477 13.894C17.6744 13.8744 17.8707 13.9414 18.0182 14.0789C18.1658 14.2164 18.251 14.4116 18.2532 14.6173C18.2611 14.8306 18.1833 15.0378 18.0382 15.1893C17.8932 15.3408 17.694 15.4231 17.4882 15.4165C17.2901 15.4278 17.0963 15.3532 16.9533 15.2105C16.8103 15.0677 16.7311 14.8698 16.7345 14.664C16.733 14.4593 16.8107 14.2625 16.9503 14.1178ZM17.9551 14.664C17.9551 14.3606 17.7976 14.0048 17.477 14.0048C17.1339 14.0048 17.0326 14.3198 17.0326 14.594C17.0326 14.9615 17.1339 15.3056 17.5107 15.3056C17.8876 15.3056 17.9551 14.9673 17.9551 14.664Z" fill="#211E1F"/>
<path id="Path_16" d="M19.9071 14.0055V13.9238H19.6652H19.3839V14.0055H19.4346C19.4908 14.0055 19.5977 14.0055 19.5977 14.1922V14.9505L18.7202 13.9297C18.6527 13.9297 18.5964 13.9297 18.5402 13.9297H18.3096V14.0113H18.3433C18.3885 14.0097 18.4324 14.0276 18.4644 14.0608C18.4964 14.094 18.5137 14.1394 18.5121 14.1863V15.0613C18.5121 15.2247 18.4727 15.3122 18.3433 15.3122H18.3096V15.4172H18.5796H18.8383V15.3413H18.7989C18.6471 15.3413 18.6246 15.2888 18.6189 15.108V14.2505L19.6258 15.4172H19.7158C19.7101 15.3492 19.7101 15.2809 19.7158 15.213V14.2505C19.7158 14.0113 19.8002 13.9997 19.8846 13.9997H19.9239L19.9071 14.0055Z" fill="#211E1F"/>
<path id="Shape_7" fill-rule="evenodd" clip-rule="evenodd" d="M21.071 15.0203C21.092 15.0915 21.1164 15.1616 21.1441 15.2303C21.1461 15.2678 21.1645 15.3024 21.1941 15.324C21.2237 15.3456 21.2613 15.3519 21.296 15.3411V15.417H21.0204H20.7223V15.3411H20.7504C20.7954 15.3411 20.8629 15.3295 20.8629 15.2886C20.8547 15.2387 20.8415 15.1899 20.8235 15.1428L20.7504 14.9095H20.3848L20.3229 15.1195C20.302 15.17 20.2869 15.2228 20.2779 15.277C20.2779 15.3411 20.351 15.3411 20.4185 15.3411V15.417H20.1766H19.9629V15.312C20.0383 15.3103 20.1041 15.2585 20.126 15.1836L20.4466 14.2328C20.4788 14.1473 20.5051 14.0596 20.5254 13.9703C20.5883 13.9481 20.6487 13.9188 20.7054 13.8828V13.9353L21.071 15.0203ZM20.3285 14.7403H20.6773L20.5085 14.1861L20.3285 14.7403Z" fill="#211E1F"/>
<path id="Path_17" d="M22.4376 15.0147C22.4255 15.0667 22.4046 15.1161 22.3757 15.1605C22.329 15.2187 22.2626 15.2563 22.1901 15.2655H21.9314C21.8695 15.2655 21.8189 15.2363 21.8189 15.1547V14.1105C21.8189 14.0055 21.8695 14.0055 21.9426 14.0055H22.0045V13.9238H21.7007H21.3857V14.0055H21.4195C21.4926 14.0055 21.5601 14.0055 21.5601 14.1163V15.178C21.5601 15.3005 21.4926 15.3063 21.4195 15.3063H21.3857V15.4172H21.9145H22.4376C22.4376 15.3005 22.4882 15.1838 22.5107 15.0672H22.4376V15.0147Z" fill="#211E1F"/>
<path id="Shape_8" fill-rule="evenodd" clip-rule="evenodd" d="M22.2354 14.254C22.2318 14.051 22.3924 13.883 22.5954 13.8775C22.696 13.8719 22.7944 13.9087 22.8666 13.979C22.9389 14.0494 22.9783 14.1467 22.9754 14.2475C22.9753 14.4505 22.8116 14.6156 22.6086 14.6174C22.4056 14.6191 22.239 14.457 22.2354 14.254ZM22.2954 14.2175C22.2954 14.3832 22.4297 14.5175 22.5954 14.5175C22.6749 14.5175 22.7512 14.4859 22.8075 14.4297C22.8637 14.3734 22.8954 14.2971 22.8954 14.2175C22.8954 14.0518 22.761 13.9175 22.5954 13.9175C22.4297 13.9175 22.2954 14.0518 22.2954 14.2175Z" fill="#211E1F"/>
<path id="Shape_9" fill-rule="evenodd" clip-rule="evenodd" d="M22.6677 14.0746C22.6686 14.1283 22.6305 14.1748 22.5777 14.1846V14.2646L22.6577 14.3546H22.5877C22.5617 14.3546 22.54 14.321 22.5089 14.2729C22.492 14.2467 22.4723 14.2163 22.4477 14.1846V14.3046H22.3477V14.0246V13.9746H22.5377C22.6077 13.9746 22.6677 14.0046 22.6677 14.0746ZM22.4677 14.0146V14.1846H22.4777C22.5477 14.1846 22.5477 14.1446 22.5477 14.0946C22.5511 14.0725 22.5438 14.0501 22.528 14.0343C22.5122 14.0184 22.4898 14.0111 22.4677 14.0146Z" fill="#211E1F"/>
<g id="mark">
<path id="Path_18" d="M14.7655 9.92723C16.7407 9.9389 18.3733 8.33327 18.4668 6.28723C18.455 5.28521 18.0571 4.32974 17.3618 3.63387C16.6665 2.93801 15.7316 2.55961 14.7655 2.58306H13.078C12.1247 2.56043 11.204 2.94362 10.5303 3.64343C9.85651 4.34323 9.48847 5.29862 9.51179 6.28723C9.53341 8.31097 11.1265 9.93697 13.078 9.92723H14.7655Z" fill="#0779BE"/>
<path id="Shape_10" fill-rule="evenodd" clip-rule="evenodd" d="M13.1121 2.88672C11.3227 2.88672 9.87207 4.39104 9.87207 6.24672C9.87207 8.1024 11.3227 9.60672 13.1121 9.60672C14.9015 9.60672 16.3521 8.1024 16.3521 6.24672C16.3521 4.39104 14.9015 2.88672 13.1121 2.88672ZM11.0589 6.24672C11.0598 5.3655 11.5826 4.57537 12.3752 4.25755V8.23589C11.5816 7.91943 11.0582 7.12845 11.0589 6.24672ZM15.1642 6.24672C15.1642 5.36377 14.6388 4.57244 13.8433 4.25755V8.23589C14.6388 7.921 15.1642 7.12967 15.1642 6.24672Z" fill="white"/>
<path id="Path_19" d="M14.7655 9.92723C16.7407 9.9389 18.3733 8.33327 18.4668 6.28723C18.455 5.28521 18.0571 4.32974 17.3618 3.63387C16.6665 2.93801 15.7316 2.55961 14.7655 2.58306H13.078C12.1247 2.56043 11.204 2.94362 10.5303 3.64343C9.85651 4.34323 9.48847 5.29862 9.51179 6.28723C9.53341 8.31097 11.1265 9.93697 13.078 9.92723H14.7655Z" fill="#0779BE"/>
<path id="Shape_11" fill-rule="evenodd" clip-rule="evenodd" d="M13.1121 2.88672C11.3227 2.88672 9.87207 4.39104 9.87207 6.24672C9.87207 8.1024 11.3227 9.60672 13.1121 9.60672C14.9015 9.60672 16.3521 8.1024 16.3521 6.24672C16.3521 4.39104 14.9015 2.88672 13.1121 2.88672ZM11.0589 6.24672C11.0598 5.3655 11.5826 4.57537 12.3752 4.25755V8.23589C11.5816 7.91943 11.0582 7.12845 11.0589 6.24672ZM15.1642 6.24672C15.1642 5.36377 14.6388 4.57244 13.8433 4.25755V8.23589C14.6388 7.921 15.1642 7.12967 15.1642 6.24672Z" fill="white"/>
</g>
</g>
</g>
</svg>
