<svg width="16" height="16" viewBox="0 0 16 16" fill="none" xmlns="http://www.w3.org/2000/svg">
<path fill-rule="evenodd" clip-rule="evenodd" d="M8.00033 5.33398C7.44899 5.33398 7.00033 5.78265 7.00033 6.33398C7.00033 6.88532 7.44899 7.33398 8.00033 7.33398C8.55166 7.33398 9.00033 6.88532 9.00033 6.33398C9.00033 5.78265 8.55166 5.33398 8.00033 5.33398ZM8.00033 8.66732C6.71366 8.66732 5.66699 7.62065 5.66699 6.33398C5.66699 5.04732 6.71366 4.00065 8.00033 4.00065C9.28699 4.00065 10.3337 5.04732 10.3337 6.33398C10.3337 7.62065 9.28699 8.66732 8.00033 8.66732ZM8.00033 1.33398C5.05966 1.33398 2.66699 3.70332 2.66699 6.61598C2.66699 10.2653 7.36633 14.3353 7.56633 14.5067C7.69166 14.614 7.84566 14.6673 8.00033 14.6673C8.15499 14.6673 8.30899 14.614 8.43433 14.5067C8.63433 14.3353 13.3337 10.2653 13.3337 6.61598C13.3337 3.70332 10.941 1.33398 8.00033 1.33398Z" fill="#222B45"/>
<mask id="mask0" mask-type="alpha" maskUnits="userSpaceOnUse" x="2" y="1" width="12" height="14">
<path fill-rule="evenodd" clip-rule="evenodd" d="M8.00033 5.33398C7.44899 5.33398 7.00033 5.78265 7.00033 6.33398C7.00033 6.88532 7.44899 7.33398 8.00033 7.33398C8.55166 7.33398 9.00033 6.88532 9.00033 6.33398C9.00033 5.78265 8.55166 5.33398 8.00033 5.33398ZM8.00033 8.66732C6.71366 8.66732 5.66699 7.62065 5.66699 6.33398C5.66699 5.04732 6.71366 4.00065 8.00033 4.00065C9.28699 4.00065 10.3337 5.04732 10.3337 6.33398C10.3337 7.62065 9.28699 8.66732 8.00033 8.66732ZM8.00033 1.33398C5.05966 1.33398 2.66699 3.70332 2.66699 6.61598C2.66699 10.2653 7.36633 14.3353 7.56633 14.5067C7.69166 14.614 7.84566 14.6673 8.00033 14.6673C8.15499 14.6673 8.30899 14.614 8.43433 14.5067C8.63433 14.3353 13.3337 10.2653 13.3337 6.61598C13.3337 3.70332 10.941 1.33398 8.00033 1.33398Z" fill="white"/>
</mask>
<g mask="url(#mask0)">
</g>
</svg>
