<svg width="27" height="18" viewBox="0 0 27 18" fill="none" xmlns="http://www.w3.org/2000/svg">
<g id="mastercard-color_large">
<rect id="card_bg" width="27" height="18" rx="4" fill="#F2F0EC"/>
<g id="mastercard">
<g id="Group" opacity="0.01">
<rect id="Rectangle" x="2.37402" y="1.11523" width="22.2582" height="14.7692" fill="white"/>
</g>
<rect id="Rectangle_2" x="10.5674" y="3.6875" width="5.87075" height="9.62308" fill="#F26122"/>
<path id="Path" d="M11.1999 8.50016C11.1902 6.62719 12.0381 4.85345 13.4999 3.68862C10.9988 1.71513 7.40605 2.00171 5.24712 4.34689C3.0882 6.69207 3.0882 10.3082 5.24712 12.6534C7.40605 14.9986 10.9988 15.2852 13.4999 13.3117C12.0381 12.1469 11.1902 10.3731 11.1999 8.50016Z" fill="#EA1D25"/>
<path id="Shape" fill-rule="evenodd" clip-rule="evenodd" d="M22.866 12.1227V12.4627H22.806V12.1227H22.666V12.0527H23.016V12.1227H22.866ZM23.546 12.0527V12.4627H23.476V12.1527L23.366 12.4227H23.286L23.166 12.1527V12.4627H23.096V12.0527H23.196L23.326 12.3427L23.446 12.0527H23.546Z" fill="#F69E1E"/>
<path id="Path_2" d="M23.367 8.50008C23.3655 10.842 22.0323 12.9778 19.933 14.0015C17.8337 15.0252 15.3362 14.7574 13.5 13.3116C16.145 11.222 16.6031 7.37755 14.5235 4.72123C14.2254 4.33658 13.8817 3.98979 13.5 3.68854C15.3362 2.24277 17.8337 1.97493 19.933 2.99864C22.0323 4.02235 23.3655 6.15815 23.367 8.50008Z" fill="#F69E1E"/>
</g>
</g>
</svg>
